<svg width="0" height="0" class="hidden">
  <symbol xmlns="http://www.w3.org/2000/svg" viewBox="0 0 470.513 470.513" id="facebook-logo">
    <path d="M271.521 154.17v-40.541c0-6.086.28-10.8.849-14.13.567-3.335 1.857-6.615 3.859-9.853 1.999-3.236 5.236-5.47 9.706-6.708 4.476-1.24 10.424-1.858 17.85-1.858h40.539V0h-64.809c-37.5 0-64.433 8.897-80.803 26.691-16.368 17.798-24.551 44.014-24.551 78.658v48.82h-48.542v81.086h48.539v235.256h97.362V235.256h64.805l8.566-81.086h-73.37z"></path>
  </symbol>
  
  <symbol viewBox="0 0 24 24" xmlns="http://www.w3.org/2000/svg" id="linkedin">
    <path d="M23.994 24v-.001H24v-8.802c0-4.306-.927-7.623-5.961-7.623-2.42 0-4.044 1.328-4.707 2.587h-.07V7.976H8.489v16.023h4.97v-7.934c0-2.089.396-4.109 2.983-4.109 2.549 0 2.587 2.384 2.587 4.243V24zM.396 7.977h4.976V24H.396zM2.882 0C1.291 0 0 1.291 0 2.882s1.291 2.909 2.882 2.909 2.882-1.318 2.882-2.909A2.884 2.884 0 0 0 2.882 0z"></path>
  </symbol>
  <symbol viewBox="0 0 1024 1024" xmlns="http://www.w3.org/2000/svg" id="star-empty">
    <path d="M908.1 353.1l-253.9-36.9L540.7 86.1c-3.1-6.3-8.2-11.4-14.5-14.5-15.8-7.8-35-1.3-42.9 14.5L369.8 316.2l-253.9 36.9c-7 1-13.4 4.3-18.3 9.3a32.05 32.05 0 0 0 .6 45.3l183.7 179.1-43.4 252.9a31.946 31.946 0 0 0 12.707 31.297A31.944 31.944 0 0 0 284.9 873.4L512 754l227.1 119.4c6.2 3.3 13.4 4.4 20.3 3.2 17.4-3 29.1-19.5 26.1-36.9l-43.4-252.9 183.7-179.1c5-4.9 8.3-11.3 9.3-18.3 2.7-17.5-9.5-33.7-27-36.3zM664.8 561.6l36.1 210.3L512 672.7 323.1 772l36.1-210.3-152.8-149L417.6 382 512 190.7 606.4 382l211.2 30.7-152.8 148.9z"
      ></path>
  </symbol>
  <symbol viewBox="0 0 1024 1024" xmlns="http://www.w3.org/2000/svg" id="star-filled">
    <path d="M908.1 353.1l-253.9-36.9L540.7 86.1c-3.1-6.3-8.2-11.4-14.5-14.5-15.8-7.8-35-1.3-42.9 14.5L369.8 316.2l-253.9 36.9c-7 1-13.4 4.3-18.3 9.3a32.05 32.05 0 0 0 .6 45.3l183.7 179.1-43.4 252.9a31.946 31.946 0 0 0 12.707 31.297A31.944 31.944 0 0 0 284.9 873.4L512 754l227.1 119.4c6.2 3.3 13.4 4.4 20.3 3.2 17.4-3 29.1-19.5 26.1-36.9l-43.4-252.9 183.7-179.1c5-4.9 8.3-11.3 9.3-18.3 2.7-17.5-9.5-33.7-27-36.3z"
      ></path>
  </symbol>
  <symbol viewBox="0 0 536 512" xmlns="http://www.w3.org/2000/svg" id="star-half-filled">
    <g clip-path="url(#clip0)">
      <path d="M508.55 171.51L362.18 150.2 296.77 17.81C290.89 5.98 279.42 0 267.95 0c-11.4 0-22.79 5.9-28.69 17.81l-65.43 132.38-146.38 21.29c-26.25 3.8-36.77 36.09-17.74 54.59l105.89 103-25.06 145.48C86.98 495.33 103.57 512 122.15 512c4.93 0 10-1.17 14.87-3.75l130.95-68.68 130.94 68.7c4.86 2.55 9.92 3.71 14.83 3.71 18.6 0 35.22-16.61 31.66-37.4l-25.03-145.49 105.91-102.98c19.04-18.5 8.52-50.8-17.73-54.6zm-121.74 123.2l-18.12 17.62 4.28 24.88 19.52 113.45-102.13-53.59-22.38-11.74.03-317.19 51.03 103.29 11.18 22.63 25.01 3.64 114.23 16.63-82.65 80.38z"
        ></path>
    </g>
    <defs>
      <clipPath id="clip0">
        <path fill="#fff" d="M0 0h536v512H0z"></path>
      </clipPath>
    </defs>
  </symbol>
  <symbol xmlns="http://www.w3.org/2000/svg" viewBox="0 0 512.076 512.076" id="call">
    <path d="M498.639 395.039l-103.646-69.12c-13.153-8.701-30.784-5.838-40.508 6.579l-30.191 38.818a12.903 12.903 0 0 1-16.546 3.482l-5.743-3.166c-19.038-10.377-42.726-23.296-90.453-71.04s-60.672-71.45-71.049-90.453l-3.149-5.743a12.92 12.92 0 0 1 3.413-16.606l38.792-30.182c12.412-9.725 15.279-27.351 6.588-40.508l-69.12-103.646C108.12.056 90.25-3.966 76.461 4.323L33.12 30.358A61.136 61.136 0 0 0 5.242 66.539c-15.607 56.866-3.866 155.008 140.706 299.597 115.004 114.995 200.619 145.92 259.465 145.92a151.181 151.181 0 0 0 40.107-5.239 61.079 61.079 0 0 0 36.181-27.878l26.061-43.315c8.301-13.792 4.281-31.673-9.123-40.585zm-5.581 31.829l-26.001 43.341a44.103 44.103 0 0 1-26.027 20.173c-52.497 14.413-144.213 2.475-283.008-136.32S7.29 123.559 21.703 71.054a44.17 44.17 0 0 1 20.198-26.061l43.341-26.001c5.983-3.6 13.739-1.855 17.604 3.959l37.547 56.371 31.514 47.266c3.774 5.707 2.534 13.356-2.85 17.579l-38.801 30.182c-11.808 9.029-15.18 25.366-7.91 38.332l3.081 5.598c10.906 20.002 24.465 44.885 73.967 94.379 49.502 49.493 74.377 63.053 94.37 73.958l5.606 3.089c12.965 7.269 29.303 3.898 38.332-7.91l30.182-38.801c4.224-5.381 11.87-6.62 17.579-2.85l103.637 69.12c5.818 3.862 7.563 11.622 3.958 17.604zM290.161 85.39c80.081.089 144.977 64.986 145.067 145.067 0 4.713 3.82 8.533 8.533 8.533s8.533-3.82 8.533-8.533c-.099-89.503-72.63-162.035-162.133-162.133-4.713 0-8.533 3.82-8.533 8.533s3.82 8.533 8.533 8.533z"></path>
    <path d="M290.161 136.59c51.816.061 93.806 42.051 93.867 93.867a8.533 8.533 0 0 0 17.066 0c-.071-61.238-49.696-110.863-110.933-110.933-4.713 0-8.533 3.82-8.533 8.533s3.82 8.533 8.533 8.533z"></path>
    <path d="M290.161 187.79c23.552.028 42.638 19.114 42.667 42.667a8.533 8.533 0 0 0 17.066 0c-.038-32.974-26.759-59.696-59.733-59.733-4.713 0-8.533 3.82-8.533 8.533s3.82 8.533 8.533 8.533z"></path>
  </symbol>
  <symbol xmlns="http://www.w3.org/2000/svg" viewBox="0 0 58.153 58.153" id="alarm-clock">
    <path d="M40.076 29.153h-7.142a3.995 3.995 0 0 0-2.858-2.858V16.153a1 1 0 1 0-2 0v10.142c-1.72.447-3 1.999-3 3.858 0 2.206 1.794 4 4 4 1.858 0 3.411-1.28 3.858-3h7.142a1 1 0 1 0 0-2zm-11 3c-1.103 0-2-.897-2-2s.897-2 2-2 2 .897 2 2-.897 2-2 2z"></path>
    <path d="M50.188 9.764l4.096 4.096a1 1 0 0 0 1.414 0c3.167-3.166 3.167-8.319 0-11.485s-8.319-3.166-11.485 0a.997.997 0 0 0 0 1.414l4.561 4.561-1.699 1.699c-4.78-4.284-11.089-6.896-17.998-6.896s-13.218 2.612-17.998 6.896l-1.7-1.699 4.561-4.561a.997.997 0 0 0 0-1.414c-3.166-3.166-8.318-3.166-11.485 0s-3.167 8.319 0 11.485a1 1 0 0 0 1.414 0l4.096-4.096 1.676 1.676c-4.679 4.857-7.565 11.453-7.565 18.713 0 9.898 5.357 18.564 13.321 23.265l-3.028 3.028a.999.999 0 1 0 1.414 1.414l3.45-3.45c3.578 1.754 7.597 2.743 11.843 2.743s8.265-.989 11.843-2.743l3.45 3.45a.997.997 0 0 0 1.414 0 .999.999 0 0 0 0-1.414l-3.028-3.028c7.964-4.701 13.321-13.367 13.321-23.265 0-7.26-2.886-13.856-7.565-18.713l1.677-1.676zm4.095-5.975c2.146 2.146 2.362 5.502.649 7.893L46.391 3.14a6.13 6.13 0 0 1 7.892.649zM3.22 11.681c-1.713-2.39-1.497-5.746.649-7.892s5.502-2.361 7.892-.649L3.22 11.681zm25.856 43.472c-13.785 0-25-11.215-25-25s11.215-25 25-25 25 11.215 25 25-11.214 25-25 25z"></path>
    <path d="M29.076 10.032a1 1 0 0 0 1-1v-1a1 1 0 1 0-2 0v1a1 1 0 0 0 1 1zm0 40a1 1 0 0 0-1 1v1a1 1 0 1 0 2 0v-1a1 1 0 0 0-1-1zm21-19h1a1 1 0 1 0 0-2h-1a1 1 0 1 0 0 2zm-42-2h-1a1 1 0 1 0 0 2h1a1 1 0 1 0 0-2zm35.85-15.264l-.707.707a.999.999 0 1 0 1.414 1.414l.707-.707a.999.999 0 1 0-1.414-1.414zM13.52 44.174l-.707.707a.999.999 0 1 0 1.414 1.414l.707-.707a.999.999 0 1 0-1.414-1.414zm31.113 0a.999.999 0 1 0-1.414 1.414l.707.707a.997.997 0 0 0 1.414 0 .999.999 0 0 0 0-1.414l-.707-.707zM14.227 13.768a.999.999 0 1 0-1.414 1.414l.707.707a.997.997 0 0 0 1.414 0 .999.999 0 0 0 0-1.414l-.707-.707z"></path>
  </symbol>
  <symbol xmlns="http://www.w3.org/2000/svg" viewBox="0 0 310 310" id="twitter">
    <path d="M302.973 57.388a117.512 117.512 0 0 1-14.993 5.463 66.276 66.276 0 0 0 13.494-23.73 5 5 0 0 0-7.313-5.824 117.994 117.994 0 0 1-34.878 13.783c-12.381-12.098-29.197-18.983-46.581-18.983-36.695 0-66.549 29.853-66.549 66.547 0 2.89.183 5.764.545 8.598C101.163 99.244 58.83 76.863 29.76 41.204a5.001 5.001 0 0 0-8.196.642c-5.896 10.117-9.013 21.688-9.013 33.461 0 16.035 5.725 31.249 15.838 43.137a56.37 56.37 0 0 1-8.907-3.977 5 5 0 0 0-7.427 4.257c-.007.295-.007.59-.007.889 0 23.935 12.882 45.484 32.577 57.229a57.372 57.372 0 0 1-5.063-.735 4.998 4.998 0 0 0-5.699 6.437c7.29 22.76 26.059 39.501 48.749 44.605-18.819 11.787-40.34 17.961-62.932 17.961a120.4 120.4 0 0 1-14.095-.826 5 5 0 0 0-3.286 9.174c29.023 18.609 62.582 28.445 97.047 28.445 67.754 0 110.139-31.95 133.764-58.753 29.46-33.421 46.356-77.658 46.356-121.367 0-1.826-.028-3.67-.084-5.508 11.623-8.757 21.63-19.355 29.773-31.536a5 5 0 0 0-6.182-7.351z"></path>
  </symbol>
  <symbol viewBox="-35 0 512 512.002" xmlns="http://www.w3.org/2000/svg" id="notification">
    <path d="M426.7 119.887a7.5 7.5 0 1 0 15 0C441.7 53.78 387.835 0 321.628 0c-37.477 0-70.996 17.238-93.031 44.188-9.762-10.11-24.137-14.81-38.473-11.942-11.008 2.215-20.492 8.57-26.71 17.899-6.224 9.335-8.43 20.527-6.22 31.527a41.946 41.946 0 0 0 4.02 11.281C102.352 109.746 60.727 164 60.727 226.082a7.5 7.5 0 1 0 15 0c0-58.789 41.863-109.715 99.535-121.102.008 0 .015-.003.023-.003a125.202 125.202 0 0 1 24.102-2.34c1.14 0 2.281.02 3.418.05a120.085 120.085 0 0 0-1.242 17.2c0 66.105 53.863 119.886 120.066 119.886.473 0 .941-.023 1.414-.027v36.266c0 29.27 12.918 56.812 35.441 75.566l9.024 7.512c9.082 7.558 14.293 18.664 14.293 30.46v.47c0 21.585-17.594 39.144-39.219 39.144H54.219C32.594 429.164 15 411.605 15 390.02a39.778 39.778 0 0 1 3.883-17.102 39.947 39.947 0 0 1 10.906-13.766l9.258-7.464c23.312-18.766 36.68-46.684 36.68-76.586V258.66a7.5 7.5 0 1 0-15 0v16.442c0 25.34-11.329 48.996-31.09 64.906l-9.258 7.465a54.956 54.956 0 0 0-15.02 18.957C1.852 373.734 0 381.895 0 390.02c0 29.855 24.324 54.144 54.223 54.144h78.511c-.023.742-.046 1.48-.046 2.219 0 36.183 29.48 65.62 65.714 65.62s65.711-29.437 65.711-65.62c0-.738-.02-1.477-.047-2.219h78.52c29.894 0 54.219-24.289 54.219-54.144v-.47c0-16.269-7.18-31.57-19.696-41.987l-9.023-7.512c-19.09-15.895-30.04-39.235-30.04-64.04v-37.363c20.388-2.757 39.567-10.652 56.188-23.27 20.34-15.437 35.48-37.355 42.633-61.714a7.5 7.5 0 0 0-14.39-4.227c-6.254 21.305-19.508 40.477-37.313 53.993-18.39 13.96-40.36 21.34-63.531 21.34-57.938 0-105.07-47.051-105.07-104.887C216.563 62.05 263.695 15 321.629 15c57.937 0 105.07 47.05 105.07 104.887zM249.112 446.383c0 27.91-22.75 50.617-50.71 50.617-27.965 0-50.715-22.707-50.715-50.617 0-.738.019-1.48.05-2.219h101.325c.035.738.05 1.48.05 2.219zM199.387 87.637c-7.59 0-15.192.629-22.672 1.851a26.769 26.769 0 0 1-4.813-10.777c-1.422-7.063 0-14.25 3.993-20.246 4-6 10.101-10.09 17.18-11.512 10.152-2.035 20.347 1.832 26.562 9.746-5.957 9.555-10.61 20-13.7 31.09a139.574 139.574 0 0 0-6.55-.152zm0 0"></path>
    <path d="M321.629 172.031c4.144 0 7.5-3.355 7.5-7.5V71.086a7.497 7.497 0 1 0-12.547-5.547l-16.086 14.645a7.502 7.502 0 0 0-.5 10.593 7.503 7.503 0 0 0 10.598.496l3.535-3.218v76.476a7.5 7.5 0 0 0 7.5 7.5zm0 0"></path>
  </symbol>
  <symbol xmlns="http://www.w3.org/2000/svg" viewBox="0 0 512 512" id="pin">
    <path d="M256 0C161.896 0 85.333 76.563 85.333 170.667c0 28.25 7.063 56.26 20.49 81.104L246.667 506.5c1.875 3.396 5.448 5.5 9.333 5.5s7.458-2.104 9.333-5.5l140.896-254.813c13.375-24.76 20.438-52.771 20.438-81.021C426.667 76.563 350.104 0 256 0zm0 256c-47.052 0-85.333-38.281-85.333-85.333S208.948 85.334 256 85.334s85.333 38.281 85.333 85.333S303.052 256 256 256z"></path>
  </symbol>
  <symbol xmlns="http://www.w3.org/2000/svg" viewBox="0 0 512 512" id="video-call">
    <path d="M496 112h-48a15.999 15.999 0 0 0-11.36 4.64L409.44 144H384v-16c0-26.51-21.49-48-48-48H48c-26.51 0-48 21.49-48 48v256c0 26.51 21.49 48 48 48h288c26.51 0 48-21.49 48-48v-16h25.44l27.36 27.36A16.001 16.001 0 0 0 448 400h48c8.837 0 16-7.163 16-16V128c0-8.837-7.163-16-16-16zm-16 256h-25.44l-27.36-27.36A16.001 16.001 0 0 0 416 336h-48c-8.837 0-16 7.163-16 16v32c0 8.837-7.163 16-16 16H48c-8.837 0-16-7.163-16-16V128c0-8.837 7.163-16 16-16h288c8.837 0 16 7.163 16 16v160h32V176h32a15.997 15.997 0 0 0 11.36-4.64l27.2-27.36H480v224z"></path>
  </symbol>
  <symbol xmlns="http://www.w3.org/2000/svg" viewBox="0 0 296.154 296.154" id="wifi">
    <path d="M293.811 102.727c-38.927-38.926-90.683-60.365-145.734-60.365S41.27 63.801 2.344 102.727a8 8 0 0 0 11.315 11.314c35.904-35.904 83.642-55.68 134.419-55.68 50.777 0 98.516 19.775 134.42 55.68a7.973 7.973 0 0 0 5.657 2.344 8.002 8.002 0 0 0 5.656-13.658z"></path>
    <path d="M148.077 86.829c-43.174 0-83.764 16.813-114.292 47.34a8 8 0 0 0 11.314 11.314c27.506-27.506 64.077-42.654 102.978-42.654 38.899 0 75.471 15.148 102.977 42.654a8 8 0 0 0 11.314-11.314c-30.528-30.528-71.118-47.34-114.291-47.34z"></path>
    <path d="M148.076 130.407c-31.533 0-61.18 12.281-83.478 34.578a8 8 0 0 0 11.314 11.314c19.275-19.275 44.903-29.893 72.163-29.893s52.888 10.617 72.163 29.893a7.973 7.973 0 0 0 5.657 2.344 7.969 7.969 0 0 0 5.656-2.344 7.999 7.999 0 0 0 .001-11.313c-22.296-22.298-51.941-34.579-83.476-34.579z"></path>
    <path d="M148.076 174.428c-19.774 0-38.365 7.701-52.349 21.686a7.999 7.999 0 0 0 .001 11.313 8 8 0 0 0 11.313 0c10.961-10.961 25.534-16.998 41.034-16.998 15.501 0 30.074 6.037 41.035 16.998a7.973 7.973 0 0 0 5.657 2.344 7.969 7.969 0 0 0 5.656-2.344 7.999 7.999 0 0 0 .001-11.313c-13.981-13.984-32.572-21.686-52.348-21.686zm.001 47.362a15.955 15.955 0 0 0-11.315 4.686c-6.248 6.248-6.248 16.381 0 22.627a15.952 15.952 0 0 0 11.315 4.689 15.95 15.95 0 0 0 11.314-4.689c6.248-6.246 6.248-16.379 0-22.627a15.949 15.949 0 0 0-11.314-4.686z"></path>
  </symbol>

  <symbol xmlns="http://www.w3.org/2000/svg" viewBox="0 0 512 512" id="google-plus">
    <path d="M448 224v-64h-32v64h-64v32h64v64h32v-64h64v-32zm-288 0v64h90.528c-13.216 37.248-48.8 64-90.528 64-52.928 0-96-43.072-96-96s43.072-96 96-96c22.944 0 45.024 8.224 62.176 23.168l42.048-48.256C235.424 109.824 198.432 96 160 96 71.776 96 0 167.776 0 256s71.776 160 160 160 160-71.776 160-160v-32H160z"></path>
  </symbol>
</svg>